<?xml version="1.0" encoding="utf-8"?>
<!-- Generator: Adobe Illustrator 25.4.1, SVG Export Plug-In . SVG Version: 6.00 Build 0)  -->
<svg version="1.1" id="Vrstva_1" xmlns="http://www.w3.org/2000/svg" xmlns:xlink="http://www.w3.org/1999/xlink" x="0px" y="0px"
	 viewBox="0 0 122 63.7" style="enable-background:new 0 0 122 63.7;" xml:space="preserve">
<style type="text/css">
	.st0{fill:#000166;}
	.st1{fill:#99CC2D;}
</style>
<g>
	<path id="Path_63_00000058551006926523790690000011789916028852598462_" class="st0" d="M104.2,17.1c3.4,0,6.7,0.4,9.8-0.1
		c4.4-0.6,6.9-4.5,6.5-9c-0.4-3.9-4-7.1-8.1-7.1c-4.3,0-7.8,3-8.2,7.3C104,11.2,104.2,14.1,104.2,17.1z"/>
	<path id="Path_63" class="st1" d="M100.8,17.1c-3.4,0-6.7,0.4-9.8-0.1c-4.4-0.6-7-4.5-6.5-9c0.4-4,4-7.1,8.1-7.1
		c4.3,0,7.9,3,8.2,7.4C101,11.2,100.8,14.1,100.8,17.1z"/>
	<g id="Group_1" transform="translate(289.369 228.873)">
		<path id="Path_1" class="st0" d="M-269.8-228c-10.8,0-18.1,7.1-18.1,17.7c0,10.5,7.4,17.8,18.1,17.8c4.5,0.1,9-1,12.9-3.1v-8.8
			h-0.2c-3.7,2.4-8,3.6-12.4,3.5c-5.3,0-9.1-3.8-9.1-9.3c0-5.5,3.7-9.4,9.1-9.4c4.4-0.1,8.7,1.2,12.4,3.6h0.2v-8.9
			c-3.8-2-8-3.1-12.3-3.1C-269.4-228-269.6-228-269.8-228z"/>
		<rect id="Rectangle_17" x="-251.3" y="-227.3" class="st0" width="9" height="34.1"/>
		<path id="Path_2" class="st0" d="M-221.1-214.3c-2.9-0.7-5.3-1.3-5.3-3c0-1.7,1.8-2.8,4.5-2.8c3.6-0.1,7.1,0.8,10.1,2.6h0.3v-8.1
			c-2.5-1.5-6.3-2.4-10.4-2.4c-8.8,0-14.2,4.2-14.2,11c0,7.6,6.4,9.2,11,10.4l0.1,0c2.9,0.8,5.4,1.4,5.4,3.4c0,1.7-1.8,2.8-4.5,2.8
			c-4.5,0-7.5-0.5-11.4-3h-0.2v8.3c2.8,1.8,7.9,2.5,11.7,2.5c9.4,0,14.5-3.9,14.5-11.1C-209.6-211.4-216.2-213.1-221.1-214.3z"/>
	</g>
	<g>
		<path class="st0" d="M8.9,44.1c0-1.4,0.9-2.3,2.4-2.3c0.5,0,0.9,0.1,1.3,0.3l0.2,0.1l0.5-1.3l-0.2-0.1c-0.6-0.3-1.2-0.4-1.9-0.4
			c-2.5,0-4,1.4-4,3.7v2.5H5.1V48h2.2v9.6h1.7V48h4.7v-1.4H8.9V44.1z"/>
		<path class="st0" d="M29.7,48.5c-1.2-1.4-3-2.2-4.8-2.1c-3.6,0-6.2,2.5-6.2,5.8c0,3.3,2.7,5.8,6.2,5.8c0.1,0,0.2,0,0.2,0
			c1.8,0,3.4-0.8,4.6-2.1v1.8h1.7v-11h-1.7V48.5z M29.7,52.1L29.7,52.1c0,2.8-2.4,4.3-4.7,4.3c-2.7,0-4.7-1.8-4.7-4.3h0
			c0-2.5,2-4.3,4.7-4.3C27.3,47.8,29.7,49.4,29.7,52.1z"/>
		<path class="st0" d="M45.5,47.9c1.9,0,3.6,1,4.1,2.5l0.1,0.2l1.6-0.5l-0.1-0.2c-0.8-2.1-3-3.5-5.7-3.5c-3.6,0-6.3,2.5-6.3,5.8
			c0,3.3,2.7,5.8,6.3,5.8c2.7,0,4.9-1.4,5.7-3.4l0.1-0.3l-1.5-0.4l-0.1,0.2c-0.6,1.4-2.2,2.4-4.1,2.4c-2.3,0-4.7-1.5-4.7-4.3
			C40.9,49.7,42.9,47.9,45.5,47.9z"/>
		<path class="st0" d="M60.3,42.6c-0.6-0.1-1.2,0.4-1.3,1c0,0,0,0,0,0l0,0l0,0c0.1,0.5,0.5,0.9,1,1c0.1,0,0.1,0,0.2,0
			c0.6,0,1.1-0.4,1.2-1l0,0l0,0C61.2,43.1,60.8,42.7,60.3,42.6z"/>
		<rect x="59.3" y="46.6" class="st0" width="1.6" height="11"/>
		<rect x="70.2" y="40.6" class="st0" width="1.7" height="17.1"/>
		<path class="st0" d="M82,42.6c-0.6-0.1-1.2,0.4-1.3,1c0,0,0,0,0,0l0,0l0,0c0.1,0.5,0.5,0.9,1,1c0.1,0,0.1,0,0.2,0
			c0.6,0,1.1-0.4,1.2-1l0,0l0,0C83,43.1,82.6,42.7,82,42.6z"/>
		<rect x="81.1" y="46.6" class="st0" width="1.6" height="11"/>
		<path class="st0" d="M97.9,55.8c-0.5,0.4-1.2,0.7-1.9,0.7c-1.3,0-2.2-0.8-2.2-2V48h4.4v-1.4h-4.4v-3.9h-1.7v3.9h-2.6V48h2.6v6.4
			c0,2.1,1.5,3.5,3.8,3.5c1,0,1.9-0.3,2.7-0.9l0.2-0.1l-0.7-1.3L97.9,55.8z"/>
		<polygon class="st0" points="115,46.6 110.3,55.6 105.8,46.7 105.7,46.6 103.8,46.6 109.4,57.3 106.5,62.8 108.4,62.8 116.9,46.6 
					"/>
	</g>
	<path id="Path_63_00000109726207454914110560000016736206823327390902_" class="st0" d="M100.7,20.3c-3.4,0-6.7-0.4-9.8,0.1
		c-4.4,0.6-6.9,4.5-6.5,9c0.4,3.9,4,7.1,8.1,7.1c4.3,0,7.8-3,8.2-7.3C100.9,26.2,100.7,23.3,100.7,20.3z"/>
	<path id="Path_63_00000165204117371316501870000005293607442725830545_" class="st1" d="M104.2,20.3c3.4,0,6.7-0.4,9.8,0.1
		c4.4,0.6,7,4.5,6.5,9c-0.4,4-4,7.1-8.1,7.1c-4.3,0-7.9-3-8.2-7.4C104,26.2,104.2,23.3,104.2,20.3z"/>
</g>
</svg>
