<?xml version="1.0" encoding="UTF-8" standalone="no"?>
<!-- Created with Inkscape (http://www.inkscape.org/) -->

<svg
   version="1.1"
   id="svg1"
   width="34.217529"
   height="36.311279"
   viewBox="0 0 34.217529 36.311279"
   xmlns="http://www.w3.org/2000/svg"
   xmlns:svg="http://www.w3.org/2000/svg">
  <defs
     id="defs1" />
  <g
     id="g1"
     transform="translate(-3767.0024,-2324.8879)">
    <g
       id="group-R5">
      <g
         id="g27371">
        <path
           id="path18163"
           d="m 28341.8,9323.2 v -29.5"
           style="fill:none;stroke:#000000;stroke-width:5.38704;stroke-linecap:round;stroke-linejoin:round;stroke-miterlimit:10;stroke-dasharray:none;stroke-opacity:1"
           transform="matrix(0.13333333,0,0,-0.13333333,0,3600)" />
        <path
           id="path18164"
           d="m 28470.4,9293.7 v 36.2 c 0,21.5 7,42.2 18.6,60.3 12.6,19.6 19.1,43.4 17.1,68.8 -4.1,52.1 -45.4,94.9 -97.3,100.9 -67,7.7 -123.6,-45.1 -123.6,-110.5 v 0 c 0,-10.6 -3.1,-21.2 -8.9,-30.1 l -19.9,-30.6 c -3.3,-5.2 0.4,-12 6.5,-12 h 15.1 v -48.8 c 0,-11 10.5,-19 21.1,-16.2 l 49.4,14 c 7.5,2.1 13.3,8.1 15.1,15.6 l 2.6,10.4"
           style="fill:none;stroke:#000000;stroke-width:5.38704;stroke-linecap:round;stroke-linejoin:round;stroke-miterlimit:10;stroke-dasharray:none;stroke-opacity:1"
           transform="matrix(0.13333333,0,0,-0.13333333,0,3600)" />
        <path
           id="path18165"
           d="m 28396.3,9536.1 v -28.2 c -2.5,1 -5.2,1.5 -8.1,1.2 -8.5,-1 -15.2,-8.4 -15.1,-17 0,-9.3 7.6,-16.9 16.9,-16.9 2.2,0 4.3,0.5 6.3,1.2 v -28.2"
           style="fill:none;stroke:#000000;stroke-width:5.38704;stroke-linecap:round;stroke-linejoin:round;stroke-miterlimit:10;stroke-dasharray:none;stroke-opacity:1"
           transform="matrix(0.13333333,0,0,-0.13333333,0,3600)" />
        <path
           id="path18166"
           d="m 28396.3,9360.7 v 28.2 c 1.9,-0.8 4,-1.2 6.2,-1.2 9.3,0 16.9,7.5 17,16.9 0,8.5 -6.7,15.9 -15.2,16.9 -2.9,0.3 -5.6,-0.1 -8,-1.1 v 28.2"
           style="fill:none;stroke:#000000;stroke-width:5.38704;stroke-linecap:round;stroke-linejoin:round;stroke-miterlimit:10;stroke-dasharray:none;stroke-opacity:1"
           transform="matrix(0.13333333,0,0,-0.13333333,0,3600)" />
        <path
           id="path18167"
           d="m 28396.4,9448.6 h 28.3 c -1,2.4 -1.5,5.1 -1.2,8 0.8,8.5 8.1,15.2 16.7,15.4 9.4,0.1 17.2,-7.6 17.2,-17 0,-2.3 -0.5,-4.4 -1.3,-6.4 h 28.2"
           style="fill:none;stroke:#000000;stroke-width:5.38704;stroke-linecap:round;stroke-linejoin:round;stroke-miterlimit:10;stroke-dasharray:none;stroke-opacity:1"
           transform="matrix(0.13333333,0,0,-0.13333333,0,3600)" />
        <path
           id="path18168"
           d="m 28396.3,9448.6 h -28.3 c 1,-2.4 1.5,-5.1 1.2,-8 -0.8,-8.5 -8.1,-15.3 -16.7,-15.4 -9.4,-0.1 -17.2,7.5 -17.2,17 0,2.3 0.5,4.4 1.3,6.4 h -28.3"
           style="fill:none;stroke:#000000;stroke-width:5.38704;stroke-linecap:round;stroke-linejoin:round;stroke-miterlimit:10;stroke-dasharray:none;stroke-opacity:1"
           transform="matrix(0.13333333,0,0,-0.13333333,0,3600)" />
      </g>
    </g>
  </g>
</svg>
