<?xml version="1.0" encoding="UTF-8" standalone="no"?>
<!-- Created with Inkscape (http://www.inkscape.org/) -->

<svg
   version="1.1"
   id="svg1"
   width="33.018875"
   height="34.862183"
   viewBox="0 0 33.018875 34.862183"
   xmlns="http://www.w3.org/2000/svg"
   xmlns:svg="http://www.w3.org/2000/svg">
  <defs
     id="defs1" />
  <g
     id="g1"
     transform="translate(-177.72159,-1983.9222)">
    <g
       id="group-R5">
      <g
         id="g27368">
        <path
           id="path13225"
           d="m 1559.46,11900 c -4.81,-6.8 -12.9,-11.1 -21.92,-10.6 v 0 c -9.99,0.6 -19.36,-4.8 -23.87,-13.8 v 0 c -6.77,-13.4 -23.69,-17.9 -36.25,-9.7 v 0 c -8.38,5.5 -19.2,5.5 -27.57,0 v 0 c -12.56,-8.2 -29.48,-3.7 -36.25,9.7 v 0 c -4.51,9 -13.88,14.4 -23.87,13.8 v 0 c -14.99,-0.8 -27.38,11.6 -26.54,26.6 v 0 c 0.56,9.9 -4.85,19.3 -13.78,23.8 v 0 c -13.4,6.8 -17.93,23.7 -9.71,36.3 v 0 c 5.47,8.3 5.47,19.2 0,27.5 v 0 c -8.22,12.6 -3.69,29.5 9.71,36.3 v 0 c 8.93,4.5 14.34,13.9 13.78,23.9 v 0 c -0.84,15 11.55,27.3 26.54,26.5 v 0 c 9.99,-0.6 19.36,4.9 23.87,13.8 v 0 c 6.77,13.4 23.69,17.9 36.25,9.7 v 0 c 8.37,-5.5 19.19,-5.5 27.57,0 v 0 c 12.56,8.2 29.48,3.7 36.25,-9.7 v 0 c 4.51,-8.9 13.88,-14.4 23.87,-13.8 v 0 c 14.99,0.8 27.37,-11.5 26.54,-26.5 v 0 c -0.56,-10 4.85,-19.4 13.78,-23.9"
           style="fill:none;stroke:#000000;stroke-width:5.38704;stroke-linecap:round;stroke-linejoin:round;stroke-miterlimit:10;stroke-dasharray:none;stroke-opacity:1"
           transform="matrix(0.13333333,0,0,-0.13333333,0,3600)" />
        <path
           id="path13226"
           d="m 1545.57,12036.2 c -5.03,8.4 -7.63,18.2 -7.18,28.4 -19.83,-0.9 -38.37,9.9 -47.47,27.5 -16.33,-10.8 -37.85,-10.8 -54.65,-0.1 -9.16,-17.6 -27.73,-28.3 -47.56,-27.4"
           style="fill:none;stroke:#000000;stroke-width:5.38704;stroke-linecap:round;stroke-linejoin:round;stroke-miterlimit:10;stroke-dasharray:none;stroke-opacity:1"
           transform="matrix(0.13333333,0,0,-0.13333333,0,3600)" />
        <path
           id="path13227"
           d="m 1361.36,12017.1 c 10.8,-16.3 10.87,-37.8 0.15,-54.6 17.57,-9.1 28.25,-27.6 27.36,-47.4 19.78,0.9 38.27,-9.8 47.4,-27.4 16.69,10.7 38.04,10.7 54.73,0 2.44,4.7 5.54,8.9 9.16,12.5 6.82,6.9 15.45,11.6 24.89,13.7"
           style="fill:none;stroke:#000000;stroke-width:5.38704;stroke-linecap:round;stroke-linejoin:round;stroke-miterlimit:10;stroke-dasharray:none;stroke-opacity:1"
           transform="matrix(0.13333333,0,0,-0.13333333,0,3600)" />
        <path
           id="path13228"
           d="m 1517.32,12007.3 c -1.22,0.3 -2.35,0.7 -3.2,1 -24.95,8.6 -35.28,24.1 -27.89,46.4 3.12,9.5 -16.28,17.1 -27.03,0 -8.36,-13.2 -3.47,-31.1 -0.64,-41.4 0.66,-2.4 -1.15,-4.8 -3.63,-4.8 h -30.87 c -8.99,0 -15.29,-8.8 -12.31,-17.3 l 19.62,-55.9 c 2.14,-6.1 7.91,-10.2 14.38,-10.2 l 46.44,-0.1 c 9.53,0 18.5,4.5 24.17,12.2 v 0"
           style="fill:none;stroke:#000000;stroke-width:5.38704;stroke-linecap:round;stroke-linejoin:round;stroke-miterlimit:10;stroke-dasharray:none;stroke-opacity:1"
           transform="matrix(0.13333333,0,0,-0.13333333,0,3600)" />
        <path
           id="path13229"
           d="m 1536.09,12003.9 v -65.1 c 0,-7.6 6.18,-13.8 13.8,-13.8 v 0 c 7.63,0 13.81,6.2 13.81,13.8 v 65.1 c 0,7.6 -6.18,13.8 -13.81,13.8 v 0 c -7.62,0 -13.8,-6.2 -13.8,-13.8 z"
           style="fill:none;stroke:#000000;stroke-width:5.38704;stroke-linecap:round;stroke-linejoin:round;stroke-miterlimit:10;stroke-dasharray:none;stroke-opacity:1"
           transform="matrix(0.13333333,0,0,-0.13333333,0,3600)" />
      </g>
    </g>
  </g>
</svg>
