<?xml version="1.0" encoding="UTF-8" standalone="no"?>
<!-- Created with Inkscape (http://www.inkscape.org/) -->

<svg
   version="1.1"
   id="svg1"
   width="32.051514"
   height="33.131592"
   viewBox="0 0 32.051514 33.131592"
   xmlns="http://www.w3.org/2000/svg"
   xmlns:svg="http://www.w3.org/2000/svg">
  <defs
     id="defs1" />
  <g
     id="g1"
     transform="translate(-3373.2942,-798.01428)">
    <g
       id="group-R5">
      <g
         id="g27373">
        <path
           id="path6647"
           d="M 25492.8,20769.1 H 25347 l -8.9,85.1 c -0.5,4.2 2.8,7.7 6.9,7.7 h 149.8 c 4.1,0 7.4,-3.5 6.9,-7.7 z"
           style="fill:none;stroke:#000000;stroke-width:5.38704;stroke-linecap:round;stroke-linejoin:round;stroke-miterlimit:10;stroke-dasharray:none;stroke-opacity:1"
           transform="matrix(0.13333333,0,0,-0.13333333,0,3600)" />
        <path
           id="path6648"
           d="m 25373.6,20901.6 h -13 c -8.4,0 -16.4,-3.9 -21.6,-10.6 l -31.3,-40.8 c -8.4,-11 -6.6,-26.7 4,-35.5 l 33.4,-27.7"
           style="fill:none;stroke:#000000;stroke-width:5.38704;stroke-linecap:round;stroke-linejoin:round;stroke-miterlimit:10;stroke-dasharray:none;stroke-opacity:1"
           transform="matrix(0.13333333,0,0,-0.13333333,0,3600)" />
        <path
           id="path6649"
           d="m 25466.2,20901.6 h 13 c 8.4,0 16.4,-3.9 21.6,-10.6 l 31.2,-40.8 c 8.5,-11 6.7,-26.7 -3.9,-35.5 l -33.5,-27.7"
           style="fill:none;stroke:#000000;stroke-width:5.38704;stroke-linecap:round;stroke-linejoin:round;stroke-miterlimit:10;stroke-dasharray:none;stroke-opacity:1"
           transform="matrix(0.13333333,0,0,-0.13333333,0,3600)" />
        <path
           id="path6650"
           d="m 25468.7,20950.3 c 0,-27 -21.8,-69.4 -48.8,-69.4 -27,0 -48.9,42.4 -48.9,69.4 0,27 21.9,48.9 48.9,48.9 27,0 48.8,-21.9 48.8,-48.9 z"
           style="fill:none;stroke:#000000;stroke-width:5.38704;stroke-linecap:round;stroke-linejoin:round;stroke-miterlimit:10;stroke-dasharray:none;stroke-opacity:1"
           transform="matrix(0.13333333,0,0,-0.13333333,0,3600)" />
        <path
           id="path6651"
           d="m 25350,21012.2 v -40"
           style="fill:none;stroke:#000000;stroke-width:5.38704;stroke-linecap:round;stroke-linejoin:round;stroke-miterlimit:10;stroke-dasharray:none;stroke-opacity:1"
           transform="matrix(0.13333333,0,0,-0.13333333,0,3600)" />
        <path
           id="path6652"
           d="m 25350,20944.5 v -31.1"
           style="fill:none;stroke:#000000;stroke-width:5.38704;stroke-linecap:round;stroke-linejoin:round;stroke-miterlimit:10;stroke-dasharray:none;stroke-opacity:1"
           transform="matrix(0.13333333,0,0,-0.13333333,0,3600)" />
        <path
           id="path6653"
           d="m 25372.3,20986 v 21.7 c 0,2.5 2,4.5 4.5,4.5 h 16.3 c 2.5,0 4.5,-2 4.5,-4.5 v -3.1"
           style="fill:none;stroke:#000000;stroke-width:5.38704;stroke-linecap:round;stroke-linejoin:round;stroke-miterlimit:10;stroke-dasharray:none;stroke-opacity:1"
           transform="matrix(0.13333333,0,0,-0.13333333,0,3600)" />
        <path
           id="path6654"
           d="m 25419.9,21012.2 v -13"
           style="fill:none;stroke:#000000;stroke-width:5.38704;stroke-linecap:round;stroke-linejoin:round;stroke-miterlimit:10;stroke-dasharray:none;stroke-opacity:1"
           transform="matrix(0.13333333,0,0,-0.13333333,0,3600)" />
        <path
           id="path6655"
           d="m 25442.2,21003.4 v 4.3 c 0,2.5 2,4.5 4.5,4.5 h 16.3 c 2.5,0 4.5,-2 4.5,-4.5 v -12.4"
           style="fill:none;stroke:#000000;stroke-width:5.38704;stroke-linecap:round;stroke-linejoin:round;stroke-miterlimit:10;stroke-dasharray:none;stroke-opacity:1"
           transform="matrix(0.13333333,0,0,-0.13333333,0,3600)" />
        <path
           id="path6656"
           d="m 25327.7,20980.5 v -3.8 c 0,-2.5 -2,-4.5 -4.5,-4.5 h -16.3 c -2.5,0 -4.5,2 -4.5,4.5 v 31 c 0,2.5 2,4.5 4.5,4.5 h 16.3 c 2.5,0 4.5,-2 4.5,-4.5 v -12.4"
           style="fill:none;stroke:#000000;stroke-width:5.38704;stroke-linecap:round;stroke-linejoin:round;stroke-miterlimit:10;stroke-dasharray:none;stroke-opacity:1"
           transform="matrix(0.13333333,0,0,-0.13333333,0,3600)" />
        <path
           id="path6657"
           d="m 25327.7,20912.8 v -3.8 c 0,-2.5 -2,-4.5 -4.5,-4.5 h -16.3 c -2.5,0 -4.5,2 -4.5,4.5 v 31 c 0,2.5 2,4.5 4.5,4.5 h 16.3 c 2.5,0 4.5,-2 4.5,-4.5 v -12.4"
           style="fill:none;stroke:#000000;stroke-width:5.38704;stroke-linecap:round;stroke-linejoin:round;stroke-miterlimit:10;stroke-dasharray:none;stroke-opacity:1"
           transform="matrix(0.13333333,0,0,-0.13333333,0,3600)" />
        <path
           id="path6658"
           d="m 25302.4,20861.9 v 10.4 c 0,2.5 2,4.5 4.5,4.5 h 8.1"
           style="fill:none;stroke:#000000;stroke-width:5.38704;stroke-linecap:round;stroke-linejoin:round;stroke-miterlimit:10;stroke-dasharray:none;stroke-opacity:1"
           transform="matrix(0.13333333,0,0,-0.13333333,0,3600)" />
        <path
           id="path6659"
           d="m 25489.8,21012.2 v -40"
           style="fill:none;stroke:#000000;stroke-width:5.38704;stroke-linecap:round;stroke-linejoin:round;stroke-miterlimit:10;stroke-dasharray:none;stroke-opacity:1"
           transform="matrix(0.13333333,0,0,-0.13333333,0,3600)" />
        <path
           id="path6660"
           d="m 25489.8,20944.5 v -31.1"
           style="fill:none;stroke:#000000;stroke-width:5.38704;stroke-linecap:round;stroke-linejoin:round;stroke-miterlimit:10;stroke-dasharray:none;stroke-opacity:1"
           transform="matrix(0.13333333,0,0,-0.13333333,0,3600)" />
        <path
           id="path6661"
           d="m 25537.4,20980.5 v -3.8 c 0,-2.5 -2,-4.5 -4.5,-4.5 h -16.3 c -2.5,0 -4.5,2 -4.5,4.5 v 31 c 0,2.5 2,4.5 4.5,4.5 h 16.3 c 2.5,0 4.5,-2 4.5,-4.5 v -12.4"
           style="fill:none;stroke:#000000;stroke-width:5.38704;stroke-linecap:round;stroke-linejoin:round;stroke-miterlimit:10;stroke-dasharray:none;stroke-opacity:1"
           transform="matrix(0.13333333,0,0,-0.13333333,0,3600)" />
        <path
           id="path6662"
           d="m 25537.4,20912.8 v -3.8 c 0,-2.5 -2,-4.5 -4.5,-4.5 h -16.3 c -2.5,0 -4.5,2 -4.5,4.5 v 31 c 0,2.5 2,4.5 4.5,4.5 h 16.3 c 2.5,0 4.5,-2 4.5,-4.5 v -12.4"
           style="fill:none;stroke:#000000;stroke-width:5.38704;stroke-linecap:round;stroke-linejoin:round;stroke-miterlimit:10;stroke-dasharray:none;stroke-opacity:1"
           transform="matrix(0.13333333,0,0,-0.13333333,0,3600)" />
        <path
           id="path6663"
           d="m 25524.7,20876.8 h 8.2 c 2.5,0 4.5,-2 4.5,-4.5 v -12.4"
           style="fill:none;stroke:#000000;stroke-width:5.38704;stroke-linecap:round;stroke-linejoin:round;stroke-miterlimit:10;stroke-dasharray:none;stroke-opacity:1"
           transform="matrix(0.13333333,0,0,-0.13333333,0,3600)" />
      </g>
    </g>
  </g>
</svg>
