<?xml version="1.0" encoding="UTF-8" standalone="no"?>
<!-- Created with Inkscape (http://www.inkscape.org/) -->

<svg
   version="1.1"
   id="svg1"
   width="29.771484"
   height="33.264893"
   viewBox="0 0 29.771484 33.264893"
   xmlns="http://www.w3.org/2000/svg"
   xmlns:svg="http://www.w3.org/2000/svg">
  <defs
     id="defs1" />
  <g
     id="g1"
     transform="translate(-2512.0942,-911.60094)">
    <g
       id="g27364">
      <path
         id="path6480"
         d="m 18871.2,20010 v 70.7 c 0,43.9 35.6,79.6 79.6,79.6 v 0 c 43.9,0 79.6,-35.7 79.6,-79.6 v -70.7"
         style="fill:none;stroke:#000000;stroke-width:5.38704;stroke-linecap:round;stroke-linejoin:round;stroke-miterlimit:10;stroke-dasharray:none;stroke-opacity:1"
         transform="matrix(0.13333333,0,0,-0.13333333,0,3600)" />
      <path
         id="path6481"
         d="m 18872.5,19981.8 v -27.4 c 0,-11.4 9.3,-20.7 20.7,-20.7 h 19.9"
         style="fill:none;stroke:#000000;stroke-width:5.38704;stroke-linecap:round;stroke-linejoin:round;stroke-miterlimit:10;stroke-dasharray:none;stroke-opacity:1"
         transform="matrix(0.13333333,0,0,-0.13333333,0,3600)" />
      <path
         id="path6482"
         d="m 18871.2,20010 h -6.8 c -11.6,0 -21,9.4 -21,21 v 26.9 c 0,11.6 9.4,21 21,21 h 6.8"
         style="fill:none;stroke:#000000;stroke-width:5.38704;stroke-linecap:round;stroke-linejoin:round;stroke-miterlimit:10;stroke-dasharray:none;stroke-opacity:1"
         transform="matrix(0.13333333,0,0,-0.13333333,0,3600)" />
      <path
         id="path6483"
         d="m 19033.5,20078.9 h 6.7 c 11.7,0 21.1,-9.4 21.1,-21 v -26.9 c 0,-11.6 -9.4,-21 -21.1,-21 h -6.7"
         style="fill:none;stroke:#000000;stroke-width:5.38704;stroke-linecap:round;stroke-linejoin:round;stroke-miterlimit:10;stroke-dasharray:none;stroke-opacity:1"
         transform="matrix(0.13333333,0,0,-0.13333333,0,3600)" />
      <path
         id="path6484"
         d="m 18962.6,19916.2 h -30.4 c -9.6,0 -17.5,7.8 -17.5,17.5 v 0 c 0,9.6 7.9,17.5 17.5,17.5 h 30.4 c 9.7,0 17.5,-7.9 17.5,-17.5 v 0 c 0,-9.7 -7.8,-17.5 -17.5,-17.5 z"
         style="fill:none;stroke:#000000;stroke-width:5.38704;stroke-linecap:round;stroke-linejoin:round;stroke-miterlimit:10;stroke-dasharray:none;stroke-opacity:1"
         transform="matrix(0.13333333,0,0,-0.13333333,0,3600)" />
      <path
         id="path6485"
         d="m 19003.4,20057.9 v -29.6 c 0,-28.2 -22.8,-51.1 -51.1,-51.1 v 0 c -28.2,0 -51,22.9 -51,51.1 v 52.1"
         style="fill:none;stroke:#000000;stroke-width:5.38704;stroke-linecap:round;stroke-linejoin:round;stroke-miterlimit:10;stroke-dasharray:none;stroke-opacity:1"
         transform="matrix(0.13333333,0,0,-0.13333333,0,3600)" />
      <path
         id="path6486"
         d="m 18895,20080.4 h 29 c 16.6,0 31.2,10.7 36.4,26.4 l 1.6,5 c 1.7,5.2 9.1,4.7 10.2,-0.6 v 0 c 3.5,-17.9 19.2,-30.8 37.5,-30.8 v 0"
         style="fill:none;stroke:#000000;stroke-width:5.38704;stroke-linecap:round;stroke-linejoin:round;stroke-miterlimit:10;stroke-dasharray:none;stroke-opacity:1"
         transform="matrix(0.13333333,0,0,-0.13333333,0,3600)" />
    </g>
  </g>
</svg>
