<?xml version="1.0" encoding="UTF-8" standalone="no"?>
<!-- Created with Inkscape (http://www.inkscape.org/) -->

<svg
   version="1.1"
   id="svg1"
   width="30.827393"
   height="31.19281"
   viewBox="0 0 30.827393 31.19281"
   xmlns="http://www.w3.org/2000/svg"
   xmlns:svg="http://www.w3.org/2000/svg">
  <defs
     id="defs1" />
  <g
     id="g1"
     transform="translate(-4017.3532,-915.41974)">
    <g
       id="group-R5">
      <g
         id="g27365">
        <path
           id="path6862"
           d="m 30247.6,20044.2 c 0,-7 5.7,-12.8 12.8,-12.8 7,0 12.7,5.8 12.7,12.8 0,7 -5.7,12.7 -12.7,12.7 -7.1,0 -12.8,-5.7 -12.8,-12.7 z"
           style="fill:none;stroke:#000000;stroke-width:5.38704;stroke-linecap:round;stroke-linejoin:round;stroke-miterlimit:10;stroke-dasharray:none;stroke-opacity:1"
           transform="matrix(0.13333333,0,0,-0.13333333,0,3600)" />
        <path
           id="path6863"
           d="m 30250.4,20036.2 -6,-4.8 c -2.6,-2 -4,-5.1 -4,-8.4 v -47.3"
           style="fill:none;stroke:#000000;stroke-width:5.38704;stroke-linecap:round;stroke-linejoin:round;stroke-miterlimit:10;stroke-dasharray:none;stroke-opacity:1"
           transform="matrix(0.13333333,0,0,-0.13333333,0,3600)" />
        <path
           id="path6864"
           d="m 30200.5,20044.2 c 0,-7 -5.7,-12.8 -12.8,-12.8 -7,0 -12.7,5.8 -12.7,12.8 0,7 5.7,12.7 12.7,12.7 7.1,0 12.8,-5.7 12.8,-12.7 z"
           style="fill:none;stroke:#000000;stroke-width:5.38704;stroke-linecap:round;stroke-linejoin:round;stroke-miterlimit:10;stroke-dasharray:none;stroke-opacity:1"
           transform="matrix(0.13333333,0,0,-0.13333333,0,3600)" />
        <path
           id="path6865"
           d="m 30197.7,20036.2 6,-4.8 c 2.6,-2 4,-5.1 4,-8.4 v -47.3"
           style="fill:none;stroke:#000000;stroke-width:5.38704;stroke-linecap:round;stroke-linejoin:round;stroke-miterlimit:10;stroke-dasharray:none;stroke-opacity:1"
           transform="matrix(0.13333333,0,0,-0.13333333,0,3600)" />
        <path
           id="path6866"
           d="m 30211.3,20069.6 c 0,-7 5.7,-12.7 12.8,-12.7 7,0 12.7,5.7 12.7,12.7 0,7.1 -5.7,12.8 -12.7,12.8 -7.1,0 -12.8,-5.7 -12.8,-12.8 z"
           style="fill:none;stroke:#000000;stroke-width:5.38704;stroke-linecap:round;stroke-linejoin:round;stroke-miterlimit:10;stroke-dasharray:none;stroke-opacity:1"
           transform="matrix(0.13333333,0,0,-0.13333333,0,3600)" />
        <path
           id="path6867"
           d="m 30224.1,20056.9 v -83.7"
           style="fill:none;stroke:#000000;stroke-width:5.38704;stroke-linecap:round;stroke-linejoin:round;stroke-miterlimit:10;stroke-dasharray:none;stroke-opacity:1"
           transform="matrix(0.13333333,0,0,-0.13333333,0,3600)" />
        <path
           id="path6868"
           d="m 30240.4,19950.7 v -44.9"
           style="fill:none;stroke:#000000;stroke-width:5.38704;stroke-linecap:round;stroke-linejoin:round;stroke-miterlimit:10;stroke-dasharray:none;stroke-opacity:1"
           transform="matrix(0.13333333,0,0,-0.13333333,0,3600)" />
        <path
           id="path6869"
           d="m 30207.7,19950.7 v -44.9"
           style="fill:none;stroke:#000000;stroke-width:5.38704;stroke-linecap:round;stroke-linejoin:round;stroke-miterlimit:10;stroke-dasharray:none;stroke-opacity:1"
           transform="matrix(0.13333333,0,0,-0.13333333,0,3600)" />
        <path
           id="path6870"
           d="m 30224.1,19950.9 v -47.8"
           style="fill:none;stroke:#000000;stroke-width:5.38704;stroke-linecap:round;stroke-linejoin:round;stroke-miterlimit:10;stroke-dasharray:none;stroke-opacity:1"
           transform="matrix(0.13333333,0,0,-0.13333333,0,3600)" />
        <path
           id="path6871"
           d="m 30309.6,19983 39.7,-31 c 11.8,-9.9 12.6,-27.7 1.7,-38.5 v 0 c -10.8,-10.9 -28.7,-10.1 -38.5,1.7 l -39.4,49.8"
           style="fill:none;stroke:#000000;stroke-width:5.38704;stroke-linecap:round;stroke-linejoin:round;stroke-miterlimit:10;stroke-dasharray:none;stroke-opacity:1"
           transform="matrix(0.13333333,0,0,-0.13333333,0,3600)" />
        <path
           id="path6872"
           d="m 30287.2,20105.2 c 35.4,-35.4 35.4,-92.6 0,-128 -35.3,-35.3 -92.6,-35.3 -127.9,0 -35.3,35.4 -35.3,92.6 0,128 35.3,35.3 92.6,35.3 127.9,0 z"
           style="fill:none;stroke:#000000;stroke-width:5.38704;stroke-linecap:round;stroke-linejoin:round;stroke-miterlimit:10;stroke-dasharray:none;stroke-opacity:1"
           transform="matrix(0.13333333,0,0,-0.13333333,0,3600)" />
        <path
           id="path6873"
           d="m 30272,20089.9 c 26.9,-26.9 26.9,-70.5 0,-97.4 -26.9,-27 -70.6,-27 -97.5,0 -26.9,26.9 -26.9,70.5 0,97.4 26.9,27 70.6,27 97.5,0 z"
           style="fill:none;stroke:#000000;stroke-width:5.38704;stroke-linecap:round;stroke-linejoin:round;stroke-miterlimit:10;stroke-dasharray:none;stroke-opacity:1"
           transform="matrix(0.13333333,0,0,-0.13333333,0,3600)" />
      </g>
    </g>
  </g>
</svg>
