<?xml version="1.0" encoding="UTF-8" standalone="no"?>
<!-- Created with Inkscape (http://www.inkscape.org/) -->

<svg
   version="1.1"
   id="svg1"
   width="31.996948"
   height="17.865723"
   viewBox="0 0 31.996948 17.865723"
   xmlns="http://www.w3.org/2000/svg"
   xmlns:svg="http://www.w3.org/2000/svg">
  <defs
     id="defs1" />
  <g
     id="g1"
     transform="translate(-178.91685,-2772.1608)">
    <g
       id="group-R5">
      <g
         id="g27370">
        <path
           id="path22185"
           d="m 1556.94,6204 -33.73,-14.4 c -3.97,-1.7 -8.49,-1.6 -12.34,0.4 l -27.36,14 c -5.5,2.8 -12.02,2.8 -17.51,0 l -30.91,-16.1 c -2.71,-1.4 -4.62,-3.9 -5.17,-6.9 -0.9,-4.8 -2.74,-12.5 -6.22,-18.7 -1.67,-3 0.15,-6.8 3.53,-7.4 l 2.73,-0.5 c 4.79,-0.9 9.65,1.1 12.42,5.1 l 7.71,11.2 11.3,3.9 v 0 c 5.73,-15.1 24.25,-20.7 37.38,-11.2 l 3.45,2.4"
           style="fill:none;stroke:#000000;stroke-width:5.38704;stroke-linecap:round;stroke-linejoin:round;stroke-miterlimit:10;stroke-dasharray:none;stroke-opacity:1"
           transform="matrix(0.13333333,0,0,-0.13333333,0,3600)" />
        <path
           id="path22186"
           d="m 1403.1,6101.5 v 0 c -4.3,2 -6.14,7.1 -4.11,11.4 l 8.01,17 c 2.02,4.3 7.15,6.1 11.45,4.1 v 0 c 4.3,-2 6.14,-7.1 4.12,-11.4 l -8.01,-17 c -2.03,-4.3 -7.16,-6.2 -11.46,-4.1 z"
           style="fill:none;stroke:#000000;stroke-width:5.38704;stroke-linecap:round;stroke-linejoin:round;stroke-miterlimit:10;stroke-dasharray:none;stroke-opacity:1"
           transform="matrix(0.13333333,0,0,-0.13333333,0,3600)" />
        <path
           id="path22187"
           d="m 1418.67,6094.1 v 0 c -4.3,2 -6.14,7.2 -4.11,11.5 l 14.01,29.7 c 2.03,4.3 7.16,6.1 11.46,4.1 v 0 c 4.3,-2 6.14,-7.1 4.12,-11.4 l -14.02,-29.8 c -2.03,-4.3 -7.16,-6.1 -11.46,-4.1 z"
           style="fill:none;stroke:#000000;stroke-width:5.38704;stroke-linecap:round;stroke-linejoin:round;stroke-miterlimit:10;stroke-dasharray:none;stroke-opacity:1"
           transform="matrix(0.13333333,0,0,-0.13333333,0,3600)" />
        <path
           id="path22188"
           d="m 1434.25,6086.8 v 0 c -4.3,2 -6.15,7.1 -4.12,11.4 l 8.01,17 c 2.03,4.3 7.16,6.2 11.46,4.1 v 0 c 4.3,-2 6.14,-7.1 4.11,-11.4 l -8.01,-17 c -2.02,-4.3 -7.15,-6.2 -11.45,-4.1 z"
           style="fill:none;stroke:#000000;stroke-width:5.38704;stroke-linecap:round;stroke-linejoin:round;stroke-miterlimit:10;stroke-dasharray:none;stroke-opacity:1"
           transform="matrix(0.13333333,0,0,-0.13333333,0,3600)" />
        <path
           id="path22189"
           d="m 1449.82,6079.4 v 0 c -4.3,2.1 -6.14,7.2 -4.12,11.5 l 5.27,11.2 c 2.03,4.3 7.15,6.1 11.45,4.1 v 0 c 4.31,-2.1 6.15,-7.2 4.12,-11.5 l -5.26,-11.2 c -2.03,-4.3 -7.16,-6.1 -11.46,-4.1 z"
           style="fill:none;stroke:#000000;stroke-width:5.38704;stroke-linecap:round;stroke-linejoin:round;stroke-miterlimit:10;stroke-dasharray:none;stroke-opacity:1"
           transform="matrix(0.13333333,0,0,-0.13333333,0,3600)" />
        <path
           id="path22190"
           d="m 1498.73,6148.4 24.89,-12 c 4.29,-2 6.12,-7.1 4.07,-11.4 v 0 c -2.04,-4.3 -7.18,-6.1 -11.47,-4.1 l -11.6,5.5"
           style="fill:none;stroke:#000000;stroke-width:5.38704;stroke-linecap:round;stroke-linejoin:round;stroke-miterlimit:10;stroke-dasharray:none;stroke-opacity:1"
           transform="matrix(0.13333333,0,0,-0.13333333,0,3600)" />
        <path
           id="path22191"
           d="m 1504.62,6126.4 21.27,-10.1 c 4.3,-2.1 6.12,-7.2 4.07,-11.5 v 0 c -2.04,-4.3 -7.17,-6.1 -11.47,-4.1 l -21.27,10.2"
           style="fill:none;stroke:#000000;stroke-width:5.38704;stroke-linecap:round;stroke-linejoin:round;stroke-miterlimit:10;stroke-dasharray:none;stroke-opacity:1"
           transform="matrix(0.13333333,0,0,-0.13333333,0,3600)" />
        <path
           id="path22192"
           d="m 1497.22,6110.9 11.6,-5.5 c 4.29,-2.1 6.12,-7.2 4.07,-11.5 v 0 c -2.04,-4.3 -7.18,-6.1 -11.47,-4.1 l -11.6,5.5"
           style="fill:none;stroke:#000000;stroke-width:5.38704;stroke-linecap:round;stroke-linejoin:round;stroke-miterlimit:10;stroke-dasharray:none;stroke-opacity:1"
           transform="matrix(0.13333333,0,0,-0.13333333,0,3600)" />
        <path
           id="path22193"
           d="m 1489.82,6095.3 3.12,-1.5 c 4.29,-2 6.12,-7.1 4.07,-11.4 v 0 c -2.04,-4.3 -7.18,-6.1 -11.47,-4.1 l -21.78,10.5"
           style="fill:none;stroke:#000000;stroke-width:5.38704;stroke-linecap:round;stroke-linejoin:round;stroke-miterlimit:10;stroke-dasharray:none;stroke-opacity:1"
           transform="matrix(0.13333333,0,0,-0.13333333,0,3600)" />
        <path
           id="path22194"
           d="m 1539.76,6120.1 c 7.17,1.6 12.52,7 14.51,13.6 2.17,7.2 7.18,13.1 14.11,16 l 10.78,4.5"
           style="fill:none;stroke:#000000;stroke-width:5.38704;stroke-linecap:round;stroke-linejoin:round;stroke-miterlimit:10;stroke-dasharray:none;stroke-opacity:1"
           transform="matrix(0.13333333,0,0,-0.13333333,0,3600)" />
        <path
           id="path22195"
           d="m 1366.79,6204 33.72,-14.4 c 3.98,-1.7 8.5,-1.6 12.35,0.4 l 27.36,14"
           style="fill:none;stroke:#000000;stroke-width:5.38704;stroke-linecap:round;stroke-linejoin:round;stroke-miterlimit:10;stroke-dasharray:none;stroke-opacity:1"
           transform="matrix(0.13333333,0,0,-0.13333333,0,3600)" />
        <path
           id="path22196"
           d="m 1383.97,6120.1 c -7.17,1.6 -12.52,7 -14.51,13.6 -2.18,7.2 -7.19,13.1 -14.11,16 l -10.78,4.5"
           style="fill:none;stroke:#000000;stroke-width:5.38704;stroke-linecap:round;stroke-linejoin:round;stroke-miterlimit:10;stroke-dasharray:none;stroke-opacity:1"
           transform="matrix(0.13333333,0,0,-0.13333333,0,3600)" />
      </g>
    </g>
  </g>
</svg>
