<?xml version="1.0" encoding="UTF-8" standalone="no"?>
<!-- Created with Inkscape (http://www.inkscape.org/) -->

<svg
   version="1.1"
   id="svg1"
   width="38.801025"
   height="35.074707"
   viewBox="0 0 38.801025 35.074707"
   xmlns="http://www.w3.org/2000/svg"
   xmlns:svg="http://www.w3.org/2000/svg">
  <defs
     id="defs1" />
  <g
     id="g1"
     transform="translate(-3551.186,-1137.5476)">
    <g
       id="group-R5">
      <g
         id="g27374">
        <path
           id="path26137"
           d="m 26859.4,18373.9 c -22.9,-10.4 -50.6,-16.4 -80.5,-16.2 -29.8,0.2 -57.4,6.6 -80.1,17.2"
           style="fill:none;stroke:#000000;stroke-width:5.38704;stroke-linecap:round;stroke-linejoin:round;stroke-miterlimit:10;stroke-dasharray:none;stroke-opacity:1"
           transform="matrix(0.13333333,0,0,-0.13333333,0,3600)" />
        <path
           id="path26138"
           d="m 26858.8,18284.7 c -22.7,10.7 -50.4,17.1 -80.2,17.3 -29.8,0.2 -57.5,-5.8 -80.4,-16.1"
           style="fill:none;stroke:#000000;stroke-width:5.38704;stroke-linecap:round;stroke-linejoin:round;stroke-miterlimit:10;stroke-dasharray:none;stroke-opacity:1"
           transform="matrix(0.13333333,0,0,-0.13333333,0,3600)" />
        <path
           id="path26139"
           d="m 26823.7,18247.7 c -13.4,-7.2 -28.7,-11.3 -44.9,-11.2 -51.6,0.4 -93.1,42.4 -92.7,94 0.3,51.5 42.4,93 93.9,92.7 51.6,-0.4 93,-42.5 92.7,-94 -0.2,-25 -10.1,-47.6 -26.3,-64.2"
           style="fill:none;stroke:#000000;stroke-width:5.38704;stroke-linecap:round;stroke-linejoin:round;stroke-miterlimit:10;stroke-dasharray:none;stroke-opacity:1"
           transform="matrix(0.13333333,0,0,-0.13333333,0,3600)" />
        <path
           id="path26140"
           d="m 26742.7,18330.1 c -0.4,-51.5 15.5,-93.4 35.4,-93.5 19.9,-0.2 36.4,41.5 36.7,93 0.4,51.5 -15.5,93.4 -35.4,93.6 -19.9,0.1 -36.4,-41.6 -36.7,-93.1 z"
           style="fill:none;stroke:#000000;stroke-width:5.38704;stroke-linecap:round;stroke-linejoin:round;stroke-miterlimit:10;stroke-dasharray:none;stroke-opacity:1"
           transform="matrix(0.13333333,0,0,-0.13333333,0,3600)" />
        <path
           id="path26141"
           d="m 26741.6,18226.3 c -43,14.9 -73.9,55.8 -73.9,103.9 0,47.3 29.9,87.7 71.7,103.2"
           style="fill:none;stroke:#000000;stroke-width:5.38704;stroke-linecap:round;stroke-linejoin:round;stroke-miterlimit:10;stroke-dasharray:none;stroke-opacity:1"
           transform="matrix(0.13333333,0,0,-0.13333333,0,3600)" />
        <path
           id="path26142"
           d="m 26710.8,18419.3 c 0,0 -6.3,19.2 2.2,32 8.6,12.8 28.8,14.4 28.8,14.4 0,0 6.2,-19.2 -2.3,-32"
           style="fill:none;stroke:#000000;stroke-width:5.38704;stroke-linecap:round;stroke-linejoin:round;stroke-miterlimit:10;stroke-dasharray:none;stroke-opacity:1"
           transform="matrix(0.13333333,0,0,-0.13333333,0,3600)" />
        <path
           id="path26143"
           d="m 26675.1,18373.1 c 0,0 -15.6,13 -15.1,28.3 0.5,15.5 16.7,27.5 16.7,27.5 0,0 15.5,-13 15.1,-28.4"
           style="fill:none;stroke:#000000;stroke-width:5.38704;stroke-linecap:round;stroke-linejoin:round;stroke-miterlimit:10;stroke-dasharray:none;stroke-opacity:1"
           transform="matrix(0.13333333,0,0,-0.13333333,0,3600)" />
        <path
           id="path26144"
           d="m 26668.8,18312.1 c 0,0 -20.1,2.3 -28.2,15.5 -8.1,13.1 -1.1,32.1 -1.1,32.1 0,0 20.1,-2.4 28.2,-15.5"
           style="fill:none;stroke:#000000;stroke-width:5.38704;stroke-linecap:round;stroke-linejoin:round;stroke-miterlimit:10;stroke-dasharray:none;stroke-opacity:1"
           transform="matrix(0.13333333,0,0,-0.13333333,0,3600)" />
        <path
           id="path26145"
           d="m 26692.1,18259.3 c 0,0 -18.6,-7.8 -32.1,-0.4 -13.5,7.5 -16.7,27.4 -16.7,27.4 0,0 18.6,7.9 32.1,0.4"
           style="fill:none;stroke:#000000;stroke-width:5.38704;stroke-linecap:round;stroke-linejoin:round;stroke-miterlimit:10;stroke-dasharray:none;stroke-opacity:1"
           transform="matrix(0.13333333,0,0,-0.13333333,0,3600)" />
        <path
           id="path26146"
           d="m 26741.5,18226.3 c 0,0 -11.1,-16.9 -26.5,-18.2 -15.3,-1.2 -29.1,13.6 -29.1,13.6 0,0 11.2,16.9 26.5,18.1"
           style="fill:none;stroke:#000000;stroke-width:5.38704;stroke-linecap:round;stroke-linejoin:round;stroke-miterlimit:10;stroke-dasharray:none;stroke-opacity:1"
           transform="matrix(0.13333333,0,0,-0.13333333,0,3600)" />
        <path
           id="path26147"
           d="m 26817.1,18226.3 c 43.1,14.9 74,55.8 74,103.9 0,47.3 -29.9,87.7 -71.7,103.2"
           style="fill:none;stroke:#000000;stroke-width:5.38704;stroke-linecap:round;stroke-linejoin:round;stroke-miterlimit:10;stroke-dasharray:none;stroke-opacity:1"
           transform="matrix(0.13333333,0,0,-0.13333333,0,3600)" />
        <path
           id="path26148"
           d="m 26848,18419.3 c 0,0 6.3,19.2 -2.3,32 -8.5,12.8 -28.7,14.4 -28.7,14.4 0,0 -6.3,-19.2 2.3,-32"
           style="fill:none;stroke:#000000;stroke-width:5.38704;stroke-linecap:round;stroke-linejoin:round;stroke-miterlimit:10;stroke-dasharray:none;stroke-opacity:1"
           transform="matrix(0.13333333,0,0,-0.13333333,0,3600)" />
        <path
           id="path26149"
           d="m 26883.7,18373.1 c 0,0 15.5,13 15.1,28.3 -0.5,15.5 -16.7,27.5 -16.7,27.5 0,0 -15.5,-13 -15.1,-28.4"
           style="fill:none;stroke:#000000;stroke-width:5.38704;stroke-linecap:round;stroke-linejoin:round;stroke-miterlimit:10;stroke-dasharray:none;stroke-opacity:1"
           transform="matrix(0.13333333,0,0,-0.13333333,0,3600)" />
        <path
           id="path26150"
           d="m 26890,18312.1 c 0,0 20.1,2.3 28.2,15.5 8.1,13.1 1.1,32.1 1.1,32.1 0,0 -20.1,-2.4 -28.2,-15.5"
           style="fill:none;stroke:#000000;stroke-width:5.38704;stroke-linecap:round;stroke-linejoin:round;stroke-miterlimit:10;stroke-dasharray:none;stroke-opacity:1"
           transform="matrix(0.13333333,0,0,-0.13333333,0,3600)" />
        <path
           id="path26151"
           d="m 26866.6,18259.3 c 0,0 18.7,-7.8 32.2,-0.4 13.4,7.5 16.7,27.4 16.7,27.4 0,0 -18.6,7.9 -32.1,0.4"
           style="fill:none;stroke:#000000;stroke-width:5.38704;stroke-linecap:round;stroke-linejoin:round;stroke-miterlimit:10;stroke-dasharray:none;stroke-opacity:1"
           transform="matrix(0.13333333,0,0,-0.13333333,0,3600)" />
        <path
           id="path26152"
           d="m 26817.2,18226.3 c 0,0 11.2,-16.9 26.5,-18.2 15.4,-1.2 29.2,13.6 29.2,13.6 0,0 -11.2,16.9 -26.6,18.1"
           style="fill:none;stroke:#000000;stroke-width:5.38704;stroke-linecap:round;stroke-linejoin:round;stroke-miterlimit:10;stroke-dasharray:none;stroke-opacity:1"
           transform="matrix(0.13333333,0,0,-0.13333333,0,3600)" />
      </g>
    </g>
  </g>
</svg>
