<?xml version="1.0" encoding="UTF-8" standalone="no"?>
<!-- Created with Inkscape (http://www.inkscape.org/) -->

<svg
   version="1.1"
   id="svg1"
   width="34.120239"
   height="34.202698"
   viewBox="0 0 34.120239 34.202698"
   xmlns="http://www.w3.org/2000/svg"
   xmlns:svg="http://www.w3.org/2000/svg">
  <defs
     id="defs1" />
  <g
     id="g1"
     transform="translate(-246.15137,-855.38317)">
    <g
       id="group-R5">
      <g
         id="g27367">
        <path
           id="path5258"
           d="m 1977.21,20438.8 c -5.78,-5.8 -15.15,-5.8 -20.93,0 -5.78,5.8 -5.78,15.1 0,20.9 5.78,5.8 15.15,5.8 20.93,0 5.78,-5.8 5.78,-15.1 0,-20.9 z"
           style="fill:none;stroke:#000000;stroke-width:5.38704;stroke-linecap:round;stroke-linejoin:round;stroke-miterlimit:10;stroke-dasharray:none;stroke-opacity:1"
           transform="matrix(0.13333333,0,0,-0.13333333,0,3600)" />
        <path
           id="path5259"
           d="m 1987.96,20404.9 c -17.9,-8.5 -39.99,-5.7 -55.17,8.9 -19.6,18.7 -20.28,49.8 -1.53,69.4 18.76,19.6 49.84,20.3 69.44,1.5"
           style="fill:none;stroke:#000000;stroke-width:5.38704;stroke-linecap:round;stroke-linejoin:round;stroke-miterlimit:10;stroke-dasharray:none;stroke-opacity:1"
           transform="matrix(0.13333333,0,0,-0.13333333,0,3600)" />
        <path
           id="path5260"
           d="m 2010.51,20471.6 c 9.22,-18.1 6.55,-40.8 -8.28,-56.3"
           style="fill:none;stroke:#000000;stroke-width:5.38704;stroke-linecap:round;stroke-linejoin:round;stroke-miterlimit:10;stroke-dasharray:none;stroke-opacity:1"
           transform="matrix(0.13333333,0,0,-0.13333333,0,3600)" />
        <path
           id="path5261"
           d="m 1977.21,20459.7 47.43,47.5"
           style="fill:none;stroke:#000000;stroke-width:5.38704;stroke-linecap:round;stroke-linejoin:round;stroke-miterlimit:10;stroke-dasharray:none;stroke-opacity:1"
           transform="matrix(0.13333333,0,0,-0.13333333,0,3600)" />
        <path
           id="path5262"
           d="m 2098.6,20544.4 -41.02,-41.1 c -0.59,-0.6 -1.42,-0.9 -2.26,-0.8 l -31.89,3.4 -3.4,31.9 c -0.09,0.9 0.21,1.7 0.8,2.3 l 41.02,41 c 1.65,1.7 4.49,0.7 4.74,-1.7 l 2.92,-27.4 27.42,-2.9 c 2.33,-0.2 3.33,-3.1 1.67,-4.7 z"
           style="fill:none;stroke:#000000;stroke-width:5.38704;stroke-linecap:round;stroke-linejoin:round;stroke-miterlimit:10;stroke-dasharray:none;stroke-opacity:1"
           transform="matrix(0.13333333,0,0,-0.13333333,0,3600)" />
        <path
           id="path5263"
           d="m 2043.61,20562.4 2.41,-33.9 33.87,-2.4"
           style="fill:none;stroke:#000000;stroke-width:5.38704;stroke-linecap:round;stroke-linejoin:round;stroke-miterlimit:10;stroke-dasharray:none;stroke-opacity:1"
           transform="matrix(0.13333333,0,0,-0.13333333,0,3600)" />
        <path
           id="path5264"
           d="m 1896.5,20494.3 c -20.75,-32.3 -17,-75.8 11.25,-104 32.58,-32.6 85.41,-32.6 117.99,0 26.95,26.9 31.54,67.7 13.89,99.4"
           style="fill:none;stroke:#000000;stroke-width:5.38704;stroke-linecap:round;stroke-linejoin:round;stroke-miterlimit:10;stroke-dasharray:none;stroke-opacity:1"
           transform="matrix(0.13333333,0,0,-0.13333333,0,3600)" />
        <path
           id="path5265"
           d="m 2007.22,20522.1 c -31.74,17.7 -72.51,13.1 -99.47,-13.9"
           style="fill:none;stroke:#000000;stroke-width:5.38704;stroke-linecap:round;stroke-linejoin:round;stroke-miterlimit:10;stroke-dasharray:none;stroke-opacity:1"
           transform="matrix(0.13333333,0,0,-0.13333333,0,3600)" />
        <path
           id="path5266"
           d="m 2013.61,20557.4 c -43.1,18.7 -95.03,10.5 -130.26,-24.8 -46.05,-46 -46.05,-120.7 0,-166.7 46.06,-46.1 120.73,-46.1 166.79,0 35.22,35.2 43.41,87.1 24.75,130.2"
           style="fill:none;stroke:#000000;stroke-width:5.38704;stroke-linecap:round;stroke-linejoin:round;stroke-miterlimit:10;stroke-dasharray:none;stroke-opacity:1"
           transform="matrix(0.13333333,0,0,-0.13333333,0,3600)" />
        <path
           id="path5267"
           d="m 1875.1,20330.8 13.84,28.9"
           style="fill:none;stroke:#000000;stroke-width:5.38704;stroke-linecap:round;stroke-linejoin:round;stroke-miterlimit:10;stroke-dasharray:none;stroke-opacity:1"
           transform="matrix(0.13333333,0,0,-0.13333333,0,3600)" />
        <path
           id="path5268"
           d="m 2058.53,20330.8 -13.84,28.9"
           style="fill:none;stroke:#000000;stroke-width:5.38704;stroke-linecap:round;stroke-linejoin:round;stroke-miterlimit:10;stroke-dasharray:none;stroke-opacity:1"
           transform="matrix(0.13333333,0,0,-0.13333333,0,3600)" />
      </g>
    </g>
  </g>
</svg>
