<?xml version="1.0" encoding="UTF-8" standalone="no"?>
<!-- Created with Inkscape (http://www.inkscape.org/) -->

<svg
   version="1.1"
   id="svg1"
   width="34.464264"
   height="40.051514"
   viewBox="0 0 34.464264 40.051514"
   xmlns="http://www.w3.org/2000/svg"
   xmlns:svg="http://www.w3.org/2000/svg">
  <defs
     id="defs1" />
  <g
     id="g1"
     transform="translate(-363.86819,-2602.6809)">
    <g
       id="group-R5">
      <g
         id="g27369">
        <path
           id="path19025"
           d="m 2889.4,7391.7 -18.88,-66.5"
           style="fill:none;stroke:#000000;stroke-width:5.38704;stroke-linecap:round;stroke-linejoin:round;stroke-miterlimit:10;stroke-dasharray:none;stroke-opacity:1"
           transform="matrix(0.13333333,0,0,-0.13333333,0,3600)" />
        <path
           id="path19026"
           d="m 2889.4,7391.8 -9.01,8.2 -9.01,-8.2 -9.01,8.2 -9.01,-8.2 -9.02,8.2 -9.02,-8.2"
           style="fill:none;stroke:#000000;stroke-width:5.38704;stroke-linecap:round;stroke-linejoin:round;stroke-miterlimit:10;stroke-dasharray:none;stroke-opacity:1"
           transform="matrix(0.13333333,0,0,-0.13333333,0,3600)" />
        <path
           id="path19042"
           d="m 2772.99,7277.6 c 2.89,4.3 8.36,6.1 13.23,4.3 l 31.88,-11.7"
           style="fill:none;stroke:#000000;stroke-width:5.38704;stroke-linecap:round;stroke-linejoin:round;stroke-miterlimit:10;stroke-dasharray:none;stroke-opacity:1"
           transform="matrix(0.13333333,0,0,-0.13333333,0,3600)" />
        <path
           id="path19024"
           d="m 2835.32,7391.7 17.88,-62.2"
           style="fill:none;stroke:#000000;stroke-width:5.38704;stroke-linecap:round;stroke-linejoin:round;stroke-miterlimit:10;stroke-dasharray:none;stroke-opacity:1"
           transform="matrix(0.13333333,0,0,-0.13333333,0,3600)" />
        <path
           id="path19027"
           d="m 2887.19,7319.1 c 0,15.3 5.33,30.2 15.22,41.8 7.72,9.2 12.38,21 12.38,33.9 0,29.8 -24.82,53.7 -54.91,52.4 -26.93,-1.3 -48.76,-23.2 -49.9,-50.1 -0.58,-13.7 4.05,-26.2 12.06,-35.8 7.17,-8.6 12.08,-18.8 14.24,-29.6"
           style="fill:none;stroke:#000000;stroke-width:5.38704;stroke-linecap:round;stroke-linejoin:round;stroke-miterlimit:10;stroke-dasharray:none;stroke-opacity:1"
           transform="matrix(0.13333333,0,0,-0.13333333,0,3600)" />
        <path
           id="path19028"
           d="m 2834.55,7313.6 55.62,-13.3"
           style="fill:none;stroke:#000000;stroke-width:5.38704;stroke-linecap:round;stroke-linejoin:round;stroke-miterlimit:10;stroke-dasharray:none;stroke-opacity:1"
           transform="matrix(0.13333333,0,0,-0.13333333,0,3600)" />
        <path
           id="path19029"
           d="m 2848.44,7295.7 22.52,-5.4"
           style="fill:none;stroke:#000000;stroke-width:5.38704;stroke-linecap:round;stroke-linejoin:round;stroke-miterlimit:10;stroke-dasharray:none;stroke-opacity:1"
           transform="matrix(0.13333333,0,0,-0.13333333,0,3600)" />
        <path
           id="path19030"
           d="m 2862.36,7465.5 v 11.7"
           style="fill:none;stroke:#000000;stroke-width:5.38704;stroke-linecap:round;stroke-linejoin:round;stroke-miterlimit:10;stroke-dasharray:none;stroke-opacity:1"
           transform="matrix(0.13333333,0,0,-0.13333333,0,3600)" />
        <path
           id="path19031"
           d="m 2826.7,7456 -5.85,10.1"
           style="fill:none;stroke:#000000;stroke-width:5.38704;stroke-linecap:round;stroke-linejoin:round;stroke-miterlimit:10;stroke-dasharray:none;stroke-opacity:1"
           transform="matrix(0.13333333,0,0,-0.13333333,0,3600)" />
        <path
           id="path19032"
           d="m 2800.59,7429.9 -10.12,5.8"
           style="fill:none;stroke:#000000;stroke-width:5.38704;stroke-linecap:round;stroke-linejoin:round;stroke-miterlimit:10;stroke-dasharray:none;stroke-opacity:1"
           transform="matrix(0.13333333,0,0,-0.13333333,0,3600)" />
        <path
           id="path19033"
           d="m 2934.26,7352.7 -10.13,5.8"
           style="fill:none;stroke:#000000;stroke-width:5.38704;stroke-linecap:round;stroke-linejoin:round;stroke-miterlimit:10;stroke-dasharray:none;stroke-opacity:1"
           transform="matrix(0.13333333,0,0,-0.13333333,0,3600)" />
        <path
           id="path19034"
           d="m 2791.03,7394.2 h -11.69"
           style="fill:none;stroke:#000000;stroke-width:5.38704;stroke-linecap:round;stroke-linejoin:round;stroke-miterlimit:10;stroke-dasharray:none;stroke-opacity:1"
           transform="matrix(0.13333333,0,0,-0.13333333,0,3600)" />
        <path
           id="path19035"
           d="m 2945.38,7394.2 h -11.69"
           style="fill:none;stroke:#000000;stroke-width:5.38704;stroke-linecap:round;stroke-linejoin:round;stroke-miterlimit:10;stroke-dasharray:none;stroke-opacity:1"
           transform="matrix(0.13333333,0,0,-0.13333333,0,3600)" />
        <path
           id="path19036"
           d="m 2800.59,7358.5 -10.12,-5.8"
           style="fill:none;stroke:#000000;stroke-width:5.38704;stroke-linecap:round;stroke-linejoin:round;stroke-miterlimit:10;stroke-dasharray:none;stroke-opacity:1"
           transform="matrix(0.13333333,0,0,-0.13333333,0,3600)" />
        <path
           id="path19037"
           d="m 2934.26,7435.7 -10.13,-5.8"
           style="fill:none;stroke:#000000;stroke-width:5.38704;stroke-linecap:round;stroke-linejoin:round;stroke-miterlimit:10;stroke-dasharray:none;stroke-opacity:1"
           transform="matrix(0.13333333,0,0,-0.13333333,0,3600)" />
        <path
           id="path19038"
           d="m 2903.87,7466.1 -5.84,-10.1"
           style="fill:none;stroke:#000000;stroke-width:5.38704;stroke-linecap:round;stroke-linejoin:round;stroke-miterlimit:10;stroke-dasharray:none;stroke-opacity:1"
           transform="matrix(0.13333333,0,0,-0.13333333,0,3600)" />
        <path
           id="path19039"
           d="m 2908.97,7233.9 c -10.09,-4.4 -21.74,-5.2 -32.92,-1.5 v 0 c -13.59,4.4 -29.03,6.7 -42.51,3.2 -7.79,-2 -15.68,3.3 -16.63,11.5 -0.79,6.7 3.92,12.9 10.5,14.6 9.34,2.5 18.61,2.9 25.79,2.8 6.87,-0.1 13.67,1.2 20.03,3.8 l 23.77,9.7 c 19.82,8.1 42.48,4.3 58.66,-9.6 l 29.14,-25.2"
           style="fill:none;stroke:#000000;stroke-width:5.38704;stroke-linecap:round;stroke-linejoin:round;stroke-miterlimit:10;stroke-dasharray:none;stroke-opacity:1"
           transform="matrix(0.13333333,0,0,-0.13333333,0,3600)" />
        <path
           id="path19040"
           d="m 2801.98,7242.7 -56.07,7.6 c -7.28,1 -13.84,-4.4 -14.19,-11.8 v 0 c -0.28,-5.7 3.44,-11 8.98,-12.6 l 102.37,-29.9 c 6.71,-2 13.81,-2.2 20.62,-0.6 l 50.59,11.9 c 9.79,2.3 20.1,-0.2 27.7,-6.8 l 21.11,-18.3"
           style="fill:none;stroke:#000000;stroke-width:5.38704;stroke-linecap:round;stroke-linejoin:round;stroke-miterlimit:10;stroke-dasharray:none;stroke-opacity:1"
           transform="matrix(0.13333333,0,0,-0.13333333,0,3600)" />
        <path
           id="path19041"
           d="m 2749.29,7261.7 c 2.65,5.2 8.48,7.8 14.09,6.4 l 44.09,-10.8"
           style="fill:none;stroke:#000000;stroke-width:5.38704;stroke-linecap:round;stroke-linejoin:round;stroke-miterlimit:10;stroke-dasharray:none;stroke-opacity:1"
           transform="matrix(0.13333333,0,0,-0.13333333,0,3600)" />
        <path
           id="path19043"
           d="m 2798.74,7288.5 c 3.35,3.9 8.98,5.1 13.63,2.8 l 32.59,-16.3"
           style="fill:none;stroke:#000000;stroke-width:5.38704;stroke-linecap:round;stroke-linejoin:round;stroke-miterlimit:10;stroke-dasharray:none;stroke-opacity:1"
           transform="matrix(0.13333333,0,0,-0.13333333,0,3600)" />
      </g>
    </g>
  </g>
</svg>
