<?xml version="1.0" encoding="UTF-8" standalone="no"?>
<!-- Created with Inkscape (http://www.inkscape.org/) -->

<svg
   version="1.1"
   id="svg1"
   width="35.331665"
   height="33.4552"
   viewBox="0 0 35.331665 33.4552"
   xmlns="http://www.w3.org/2000/svg"
   xmlns:svg="http://www.w3.org/2000/svg">
  <defs
     id="defs1" />
  <g
     id="g1"
     transform="translate(-1523.1608,-854.85425)">
    <g
       id="group-R5">
      <g
         id="g27366">
        <path
           id="path5863"
           d="m 11580.2,20516.1 c 4.5,4.7 7.2,11 7.2,18 0,14.5 -11.8,26.2 -26.3,26.2 -14.4,0 -26.2,-11.7 -26.2,-26.2 0,-7 2.7,-13.3 7.2,-18"
           style="fill:none;stroke:#000000;stroke-width:5.38704;stroke-linecap:round;stroke-linejoin:round;stroke-miterlimit:10;stroke-dasharray:none;stroke-opacity:1"
           transform="matrix(0.13333333,0,0,-0.13333333,0,3600)" />
        <path
           id="path5864"
           d="m 11538,20443.5 1.7,22.7"
           style="fill:none;stroke:#000000;stroke-width:5.38704;stroke-linecap:round;stroke-linejoin:round;stroke-miterlimit:10;stroke-dasharray:none;stroke-opacity:1"
           transform="matrix(0.13333333,0,0,-0.13333333,0,3600)" />
        <path
           id="path5865"
           d="m 11605.9,20443.5 -2.1,22.3 c -2.4,21.7 -20.8,38.2 -42.7,38.1 v 0 c -21.9,0 -40.2,-16.4 -42.6,-38.1 l -2.1,-22.3"
           style="fill:none;stroke:#000000;stroke-width:5.38704;stroke-linecap:round;stroke-linejoin:round;stroke-miterlimit:10;stroke-dasharray:none;stroke-opacity:1"
           transform="matrix(0.13333333,0,0,-0.13333333,0,3600)" />
        <path
           id="path5866"
           d="m 11582.6,20466.3 1.7,-22.8"
           style="fill:none;stroke:#000000;stroke-width:5.38704;stroke-linecap:round;stroke-linejoin:round;stroke-miterlimit:10;stroke-dasharray:none;stroke-opacity:1"
           transform="matrix(0.13333333,0,0,-0.13333333,0,3600)" />
        <path
           id="path5867"
           d="m 11660.4,20541.6 c 4.4,4.7 7.1,11.1 7.1,18 0,14.5 -11.7,26.3 -26.2,26.3 -14.5,0 -26.3,-11.8 -26.3,-26.3 0,-6.9 2.7,-13.3 7.2,-18"
           style="fill:none;stroke:#000000;stroke-width:5.38704;stroke-linecap:round;stroke-linejoin:round;stroke-miterlimit:10;stroke-dasharray:none;stroke-opacity:1"
           transform="matrix(0.13333333,0,0,-0.13333333,0,3600)" />
        <path
           id="path5868"
           d="m 11618.1,20469.1 1.7,22.7"
           style="fill:none;stroke:#000000;stroke-width:5.38704;stroke-linecap:round;stroke-linejoin:round;stroke-miterlimit:10;stroke-dasharray:none;stroke-opacity:1"
           transform="matrix(0.13333333,0,0,-0.13333333,0,3600)" />
        <path
           id="path5869"
           d="m 11686,20469.1 -2,22.2 c -2.5,21.8 -20.9,38.2 -42.8,38.2 v 0 c -17.3,0 -32.5,-10.4 -39.2,-25.6"
           style="fill:none;stroke:#000000;stroke-width:5.38704;stroke-linecap:round;stroke-linejoin:round;stroke-miterlimit:10;stroke-dasharray:none;stroke-opacity:1"
           transform="matrix(0.13333333,0,0,-0.13333333,0,3600)" />
        <path
           id="path5870"
           d="m 11662.7,20491.8 1.7,-22.7"
           style="fill:none;stroke:#000000;stroke-width:5.38704;stroke-linecap:round;stroke-linejoin:round;stroke-miterlimit:10;stroke-dasharray:none;stroke-opacity:1"
           transform="matrix(0.13333333,0,0,-0.13333333,0,3600)" />
        <path
           id="path5871"
           d="m 11461.9,20541.6 c -4.4,4.7 -7.1,11.1 -7.1,18 0,14.5 11.7,26.3 26.2,26.3 14.5,0 26.3,-11.8 26.3,-26.3 0,-6.9 -2.7,-13.3 -7.2,-18"
           style="fill:none;stroke:#000000;stroke-width:5.38704;stroke-linecap:round;stroke-linejoin:round;stroke-miterlimit:10;stroke-dasharray:none;stroke-opacity:1"
           transform="matrix(0.13333333,0,0,-0.13333333,0,3600)" />
        <path
           id="path5872"
           d="m 11504.2,20469.1 -1.7,22.7"
           style="fill:none;stroke:#000000;stroke-width:5.38704;stroke-linecap:round;stroke-linejoin:round;stroke-miterlimit:10;stroke-dasharray:none;stroke-opacity:1"
           transform="matrix(0.13333333,0,0,-0.13333333,0,3600)" />
        <path
           id="path5873"
           d="m 11436.3,20469.1 2,22.2 c 2.5,21.8 20.9,38.2 42.8,38.2 v 0 c 17.3,0 32.5,-10.4 39.2,-25.6"
           style="fill:none;stroke:#000000;stroke-width:5.38704;stroke-linecap:round;stroke-linejoin:round;stroke-miterlimit:10;stroke-dasharray:none;stroke-opacity:1"
           transform="matrix(0.13333333,0,0,-0.13333333,0,3600)" />
        <path
           id="path5874"
           d="m 11459.6,20491.8 -1.7,-22.7"
           style="fill:none;stroke:#000000;stroke-width:5.38704;stroke-linecap:round;stroke-linejoin:round;stroke-miterlimit:10;stroke-dasharray:none;stroke-opacity:1"
           transform="matrix(0.13333333,0,0,-0.13333333,0,3600)" />
        <path
           id="path5875"
           d="m 11426.4,20438.4 h 14.1 c 6.3,0 11.4,-5.1 11.4,-11.4 v -66 c 0,-6.2 -5.1,-11.3 -11.4,-11.3 h -14.1"
           style="fill:none;stroke:#000000;stroke-width:5.38704;stroke-linecap:round;stroke-linejoin:round;stroke-miterlimit:10;stroke-dasharray:none;stroke-opacity:1"
           transform="matrix(0.13333333,0,0,-0.13333333,0,3600)" />
        <path
           id="path5876"
           d="m 11518.5,20377.3 c 0,0 31.6,8.8 54.3,15.3 3.9,1.1 7,4.3 7.8,8.4 v 0 c 1.6,7.3 -4.3,14.1 -11.7,13.6 l -43.5,-3.1 c -6.9,13.6 -33,27.8 -50.7,17.5"
           style="fill:none;stroke:#000000;stroke-width:5.38704;stroke-linecap:round;stroke-linejoin:round;stroke-miterlimit:10;stroke-dasharray:none;stroke-opacity:1"
           transform="matrix(0.13333333,0,0,-0.13333333,0,3600)" />
        <path
           id="path5877"
           d="m 11473.6,20363.5 48.8,-20.3 c 8.8,-3.7 18.8,-3.8 27.6,-0.1 l 123.3,50.7 c 6,2.5 8.9,9.4 6.4,15.4 v 0 c -2.2,5.3 -7.9,8.3 -13.5,7 l -65.2,-14.8"
           style="fill:none;stroke:#000000;stroke-width:5.38704;stroke-linecap:round;stroke-linejoin:round;stroke-miterlimit:10;stroke-dasharray:none;stroke-opacity:1"
           transform="matrix(0.13333333,0,0,-0.13333333,0,3600)" />
      </g>
    </g>
  </g>
</svg>
